<svg xmlns="http://www.w3.org/2000/svg" width="500" height="500" viewBox="0 0 500 500" role="img" aria-labelledby="title desc" shape-rendering="crispEdges">
  <title id="title">AutoBCI square pixel cover</title>
  <desc id="desc">Square pixel art cover: a person sleeps while an AI research workstation keeps working.</desc>
  <rect width="500" height="500" fill="#141d31"/>
  <rect x="0" y="268" width="500" height="232" fill="#172736"/>
  <rect x="0" y="300" width="500" height="200" fill="#10202d"/>
  <rect x="42" y="52" width="52" height="52" fill="#f7d76e"/>
  <rect x="54" y="40" width="28" height="12" fill="#f7d76e"/>
  <rect x="94" y="64" width="12" height="28" fill="#b99542"/>
  <rect x="386" y="60" width="8" height="8" fill="#90a7c4"/>
  <rect x="430" y="102" width="6" height="6" fill="#90a7c4"/>

  <!-- bed and sleeper -->
  <rect x="42" y="286" width="226" height="34" fill="#d9eef5"/>
  <rect x="32" y="320" width="254" height="36" fill="#f7fbff"/>
  <rect x="46" y="356" width="248" height="22" fill="#a4c6d7"/>
  <rect x="44" y="312" width="86" height="38" fill="#f8fbff"/>
  <rect x="130" y="320" width="138" height="42" fill="#3467c7"/>
  <rect x="148" y="314" width="86" height="8" fill="#7eb6ff"/>
  <rect x="98" y="268" width="56" height="34" fill="#c98f68"/>
  <rect x="110" y="256" width="36" height="12" fill="#c98f68"/>
  <rect x="92" y="264" width="20" height="16" fill="#0f172a"/>
  <rect x="140" y="264" width="24" height="16" fill="#0f172a"/>
  <rect x="108" y="256" width="42" height="8" fill="#0f172a"/>
  <rect x="118" y="288" width="28" height="6" fill="#d9a17b"/>
  <rect x="180" y="256" width="16" height="8" fill="#8296b2"/>
  <rect x="202" y="238" width="16" height="8" fill="#8296b2"/>
  <rect x="224" y="220" width="16" height="8" fill="#8296b2"/>
  <rect x="180" y="248" width="52" height="8" fill="#8296b2"/>
  <rect x="202" y="230" width="52" height="8" fill="#8296b2"/>
  <rect x="224" y="212" width="52" height="8" fill="#8296b2"/>

  <!-- AI workstation -->
  <rect x="276" y="132" width="166" height="132" fill="#dbeeff"/>
  <rect x="288" y="144" width="142" height="104" fill="#f8fbff"/>
  <rect x="310" y="166" width="78" height="62" fill="#0b1728"/>
  <rect x="326" y="182" width="42" height="6" fill="#5f8ed8"/>
  <rect x="326" y="200" width="54" height="6" fill="#5f8ed8"/>
  <rect x="326" y="218" width="34" height="6" fill="#5f8ed8"/>
  <rect x="396" y="178" width="18" height="14" fill="#73dba9"/>
  <rect x="414" y="188" width="14" height="14" fill="#73dba9"/>
  <rect x="402" y="186" width="5" height="5" fill="#102033"/>
  <rect x="418" y="194" width="4" height="4" fill="#102033"/>
  <rect x="318" y="264" width="96" height="18" fill="#7aa8c7"/>
  <rect x="344" y="282" width="10" height="58" fill="#345064"/>
  <rect x="404" y="282" width="10" height="58" fill="#345064"/>

  <!-- phone gateway -->
  <rect x="220" y="300" width="62" height="88" fill="#0b1320"/>
  <rect x="228" y="310" width="46" height="68" fill="#f8fbff"/>
  <rect x="238" y="320" width="28" height="28" fill="#07c160"/>
  <rect x="244" y="332" width="10" height="10" fill="#ffffff"/>
  <rect x="255" y="329" width="8" height="8" fill="#ffffff"/>
  <rect x="247" y="335" width="3" height="3" fill="#07c160"/>
  <rect x="257" y="331" width="3" height="3" fill="#07c160"/>
  <rect x="238" y="358" width="28" height="5" fill="#bfd3e8"/>
  <rect x="238" y="368" width="18" height="5" fill="#bfd3e8"/>

  <!-- work cards and blocky signals -->
  <rect x="360" y="290" width="86" height="30" fill="#f8fbff"/>
  <rect x="374" y="302" width="34" height="5" fill="#9db5cf"/>
  <rect x="374" y="312" width="46" height="5" fill="#9db5cf"/>
  <rect x="428" y="300" width="12" height="12" fill="#07a878"/>
  <rect x="431" y="306" width="4" height="6" fill="#ffffff"/>
  <rect x="435" y="302" width="8" height="4" fill="#ffffff"/>
  <rect x="288" y="282" width="22" height="6" fill="#5f8ed8"/>
  <rect x="310" y="270" width="26" height="6" fill="#5f8ed8"/>
  <rect x="336" y="264" width="24" height="6" fill="#5f8ed8"/>
  <rect x="286" y="360" width="34" height="6" fill="#07a878"/>
  <rect x="320" y="370" width="48" height="6" fill="#07a878"/>
  <rect x="368" y="374" width="42" height="6" fill="#07a878"/>
</svg>
