<svg xmlns="http://www.w3.org/2000/svg" width="900" height="383" viewBox="0 0 900 383" role="img" aria-labelledby="title desc" shape-rendering="crispEdges">
  <title id="title">AutoBCI pixel cover</title>
  <desc id="desc">Pixel art cover: a person sleeps while an AI research workstation keeps working at night.</desc>
  <defs>
    <style>
      .p{shape-rendering:crispEdges}
    </style>
  </defs>
  <rect width="900" height="383" fill="#121827"/>

  <!-- pixel night sky -->
  <rect x="0" y="0" width="900" height="218" fill="#141d31"/>
  <rect x="0" y="218" width="900" height="165" fill="#21364a"/>
  <rect x="0" y="248" width="900" height="135" fill="#172736"/>
  <rect x="52" y="54" width="54" height="54" fill="#f7d76e"/>
  <rect x="64" y="42" width="30" height="12" fill="#f7d76e"/>
  <rect x="64" y="108" width="30" height="12" fill="#b99542"/>
  <rect x="40" y="66" width="12" height="30" fill="#f7d76e"/>
  <rect x="106" y="66" width="12" height="30" fill="#b99542"/>
  <rect x="673" y="44" width="8" height="8" fill="#90a7c4"/>
  <rect x="742" y="73" width="6" height="6" fill="#90a7c4"/>
  <rect x="816" y="38" width="8" height="8" fill="#90a7c4"/>
  <rect x="576" y="106" width="6" height="6" fill="#90a7c4"/>
  <rect x="438" y="58" width="4" height="4" fill="#90a7c4"/>

  <!-- back wall pixels -->
  <rect x="24" y="224" width="852" height="8" fill="#2f526c"/>
  <rect x="0" y="232" width="900" height="16" fill="#29475f"/>
  <rect x="0" y="300" width="900" height="83" fill="#10202d"/>
  <rect x="0" y="300" width="900" height="10" fill="#314f52"/>

  <!-- sleep side: pixel bed -->
  <rect x="92" y="220" width="278" height="34" fill="#d9eef5"/>
  <rect x="78" y="254" width="312" height="38" fill="#f7fbff"/>
  <rect x="96" y="292" width="302" height="26" fill="#a4c6d7"/>
  <rect x="84" y="318" width="330" height="18" fill="#4b6a80"/>
  <rect x="94" y="238" width="106" height="42" fill="#f8fbff"/>
  <rect x="110" y="254" width="62" height="18" fill="#dceefa"/>
  <rect x="194" y="248" width="170" height="50" fill="#3467c7"/>
  <rect x="180" y="264" width="198" height="38" fill="#3467c7"/>
  <rect x="210" y="238" width="126" height="10" fill="#7eb6ff"/>
  <rect x="194" y="298" width="170" height="10" fill="#1e4f99"/>

  <!-- sleeping person -->
  <rect x="188" y="198" width="64" height="42" fill="#c98f68"/>
  <rect x="202" y="184" width="42" height="14" fill="#c98f68"/>
  <rect x="180" y="192" width="22" height="18" fill="#0f172a"/>
  <rect x="236" y="192" width="26" height="18" fill="#0f172a"/>
  <rect x="198" y="184" width="52" height="10" fill="#0f172a"/>
  <rect x="202" y="230" width="44" height="8" fill="#a96d50"/>
  <rect x="204" y="218" width="38" height="8" fill="#d9a17b"/>
  <rect x="280" y="184" width="18" height="8" fill="#8296b2"/>
  <rect x="302" y="168" width="18" height="8" fill="#8296b2"/>
  <rect x="324" y="150" width="18" height="8" fill="#8296b2"/>
  <rect x="280" y="176" width="58" height="8" fill="#8296b2"/>
  <rect x="302" y="160" width="58" height="8" fill="#8296b2"/>
  <rect x="324" y="142" width="58" height="8" fill="#8296b2"/>

  <!-- phone gateway with square WeChat-style icon -->
  <rect x="415" y="205" width="64" height="92" fill="#0b1320"/>
  <rect x="423" y="215" width="48" height="72" fill="#f8fbff"/>
  <rect x="433" y="226" width="28" height="28" fill="#07c160"/>
  <rect x="439" y="238" width="10" height="10" fill="#ffffff"/>
  <rect x="450" y="235" width="8" height="8" fill="#ffffff"/>
  <rect x="442" y="241" width="3" height="3" fill="#07c160"/>
  <rect x="452" y="237" width="3" height="3" fill="#07c160"/>
  <rect x="433" y="266" width="28" height="5" fill="#bfd3e8"/>
  <rect x="433" y="276" width="20" height="5" fill="#bfd3e8"/>

  <!-- AI side: workstation keeps working -->
  <rect x="538" y="166" width="250" height="126" fill="#dbeeff"/>
  <rect x="550" y="178" width="226" height="102" fill="#f8fbff"/>
  <rect x="578" y="198" width="106" height="68" fill="#0b1728"/>
  <rect x="596" y="214" width="56" height="6" fill="#5f8ed8"/>
  <rect x="596" y="232" width="74" height="6" fill="#5f8ed8"/>
  <rect x="596" y="250" width="46" height="6" fill="#5f8ed8"/>
  <rect x="704" y="204" width="26" height="18" fill="#73dba9"/>
  <rect x="730" y="214" width="18" height="18" fill="#73dba9"/>
  <rect x="712" y="212" width="6" height="6" fill="#102033"/>
  <rect x="734" y="220" width="5" height="5" fill="#102033"/>
  <rect x="646" y="288" width="68" height="16" fill="#7aa8c7"/>
  <rect x="584" y="304" width="194" height="20" fill="#3d647c"/>
  <rect x="612" y="324" width="12" height="42" fill="#345064"/>
  <rect x="748" y="324" width="12" height="42" fill="#345064"/>

  <!-- AI work cards -->
  <rect x="772" y="154" width="84" height="32" fill="#f8fbff"/>
  <rect x="788" y="166" width="36" height="5" fill="#9db5cf"/>
  <rect x="788" y="176" width="48" height="5" fill="#9db5cf"/>
  <rect x="840" y="164" width="12" height="12" fill="#07a878"/>
  <rect x="843" y="170" width="4" height="6" fill="#ffffff"/>
  <rect x="847" y="166" width="8" height="4" fill="#ffffff"/>
  <rect x="738" y="210" width="104" height="34" fill="#fff2c5"/>
  <rect x="754" y="222" width="44" height="5" fill="#b9a36d"/>
  <rect x="754" y="233" width="58" height="5" fill="#b9a36d"/>
  <rect x="822" y="220" width="14" height="14" fill="#f2b84b"/>
  <rect x="828" y="214" width="5" height="11" fill="#ffe7aa"/>
  <rect x="828" y="225" width="10" height="5" fill="#ffe7aa"/>
  <rect x="786" y="270" width="78" height="28" fill="#eaf6ff"/>
  <rect x="802" y="281" width="42" height="5" fill="#9db5cf"/>

  <!-- pixel signal arcs -->
  <rect x="493" y="196" width="18" height="6" fill="#5f8ed8"/>
  <rect x="511" y="184" width="24" height="6" fill="#5f8ed8"/>
  <rect x="535" y="172" width="28" height="6" fill="#5f8ed8"/>
  <rect x="563" y="166" width="24" height="6" fill="#5f8ed8"/>
  <rect x="498" y="262" width="22" height="6" fill="#07a878"/>
  <rect x="520" y="274" width="34" height="6" fill="#07a878"/>
  <rect x="554" y="286" width="42" height="6" fill="#07a878"/>
  <rect x="596" y="292" width="38" height="6" fill="#07a878"/>
</svg>
